<?xml version="1.0" encoding="UTF-8" standalone="no"?>
<!DOCTYPE svg PUBLIC "-//W3C//DTD SVG 1.1//EN"
 "http://www.w3.org/Graphics/SVG/1.1/DTD/svg11.dtd">
<!-- Generated by graphviz version 8.0.1 (0)
 -->
<!-- Title: ast Pages: 1 -->
<svg width="3554pt" height="655pt"
 viewBox="0.00 0.00 3553.62 655.48" xmlns="http://www.w3.org/2000/svg" xmlns:xlink="http://www.w3.org/1999/xlink">
<g id="graph0" class="graph" transform="scale(1 1) rotate(0) translate(4 651.48)">
<title>ast</title>
<polygon fill="white" stroke="none" points="-4,4 -4,-651.48 3549.62,-651.48 3549.62,4 -4,4"/>
<!-- n0 -->
<g id="node1" class="node">
<title>n0</title>
<ellipse fill="none" stroke="black" cx="1429.48" cy="-629.48" rx="61.19" ry="18"/>
<text text-anchor="middle" x="1429.48" y="-625.78" font-family="Times,serif" font-size="14.00">PROGRAM</text>
</g>
<!-- n1 -->
<g id="node2" class="node">
<title>n1</title>
<ellipse fill="none" stroke="black" cx="1429.48" cy="-548.61" rx="101.23" ry="26.74"/>
<text text-anchor="middle" x="1429.48" y="-552.41" font-family="Times,serif" font-size="14.00">FUNCTION: main</text>
<text text-anchor="middle" x="1429.48" y="-537.41" font-family="Times,serif" font-size="14.00">TYPE: $zero</text>
</g>
<!-- n0&#45;&gt;n1 -->
<g id="edge1" class="edge">
<title>n0&#45;&gt;n1</title>
<path fill="none" stroke="black" d="M1429.48,-611.37C1429.48,-604.04 1429.48,-595.18 1429.48,-586.49"/>
<polygon fill="black" stroke="black" points="1432.98,-586.69 1429.48,-576.69 1425.98,-586.69 1432.98,-586.69"/>
</g>
<!-- n2 -->
<g id="node3" class="node">
<title>n2</title>
<ellipse fill="none" stroke="black" cx="627.48" cy="-458.87" rx="73.58" ry="26.74"/>
<text text-anchor="middle" x="627.48" y="-462.67" font-family="Times,serif" font-size="14.00">VAR: a</text>
<text text-anchor="middle" x="627.48" y="-447.67" font-family="Times,serif" font-size="14.00">TYPE: $zero</text>
</g>
<!-- n1&#45;&gt;n2 -->
<g id="edge2" class="edge">
<title>n1&#45;&gt;n2</title>
<path fill="none" stroke="black" d="M1328.33,-545.91C1188.11,-541.96 927.31,-528.91 709.48,-485.74 703.04,-484.46 696.4,-482.86 689.8,-481.09"/>
<polygon fill="black" stroke="black" points="691.1,-477.53 680.53,-478.17 689.19,-484.27 691.1,-477.53"/>
</g>
<!-- n3 -->
<g id="node4" class="node">
<title>n3</title>
<ellipse fill="none" stroke="black" cx="792.48" cy="-458.87" rx="73.58" ry="26.74"/>
<text text-anchor="middle" x="792.48" y="-462.67" font-family="Times,serif" font-size="14.00">VAR: b</text>
<text text-anchor="middle" x="792.48" y="-447.67" font-family="Times,serif" font-size="14.00">TYPE: $zero</text>
</g>
<!-- n1&#45;&gt;n3 -->
<g id="edge3" class="edge">
<title>n1&#45;&gt;n3</title>
<path fill="none" stroke="black" d="M1330.56,-542.4C1218.84,-535.18 1032.06,-519.05 874.48,-485.74 868.06,-484.38 861.42,-482.73 854.84,-480.92"/>
<polygon fill="black" stroke="black" points="856.15,-477.37 845.57,-477.97 854.21,-484.09 856.15,-477.37"/>
</g>
<!-- n4 -->
<g id="node5" class="node">
<title>n4</title>
<ellipse fill="none" stroke="black" cx="957.48" cy="-458.87" rx="73.58" ry="26.74"/>
<text text-anchor="middle" x="957.48" y="-462.67" font-family="Times,serif" font-size="14.00">VAR: c</text>
<text text-anchor="middle" x="957.48" y="-447.67" font-family="Times,serif" font-size="14.00">TYPE: $zero</text>
</g>
<!-- n1&#45;&gt;n4 -->
<g id="edge4" class="edge">
<title>n1&#45;&gt;n4</title>
<path fill="none" stroke="black" d="M1337.97,-536.85C1258.68,-526.63 1141.19,-509.31 1040.48,-485.74 1034.11,-484.25 1027.53,-482.52 1020.98,-480.68"/>
<polygon fill="black" stroke="black" points="1022.32,-477.14 1011.75,-477.72 1020.37,-483.86 1022.32,-477.14"/>
</g>
<!-- n5 -->
<g id="node6" class="node">
<title>n5</title>
<ellipse fill="none" stroke="black" cx="1096.48" cy="-458.87" rx="47.39" ry="18"/>
<text text-anchor="middle" x="1096.48" y="-455.17" font-family="Times,serif" font-size="14.00">PRINTF</text>
</g>
<!-- n1&#45;&gt;n5 -->
<g id="edge5" class="edge">
<title>n1&#45;&gt;n5</title>
<path fill="none" stroke="black" d="M1345.22,-533.38C1289.93,-522.91 1216.45,-506.84 1153.48,-485.74 1147.06,-483.59 1140.38,-480.95 1133.96,-478.19"/>
<polygon fill="black" stroke="black" points="1135.7,-474.69 1125.14,-473.8 1132.84,-481.08 1135.7,-474.69"/>
</g>
<!-- n7 -->
<g id="node8" class="node">
<title>n7</title>
<ellipse fill="none" stroke="black" cx="1209.48" cy="-458.87" rx="47.39" ry="18"/>
<text text-anchor="middle" x="1209.48" y="-455.17" font-family="Times,serif" font-size="14.00">PRINTF</text>
</g>
<!-- n1&#45;&gt;n7 -->
<g id="edge7" class="edge">
<title>n1&#45;&gt;n7</title>
<path fill="none" stroke="black" d="M1371.04,-526.45C1339.82,-514.89 1300.85,-500.05 1266.48,-485.74 1260.63,-483.31 1254.49,-480.64 1248.49,-477.97"/>
<polygon fill="black" stroke="black" points="1250.17,-474.44 1239.61,-473.52 1247.3,-480.82 1250.17,-474.44"/>
</g>
<!-- n9 -->
<g id="node10" class="node">
<title>n9</title>
<ellipse fill="none" stroke="black" cx="1319.48" cy="-458.87" rx="44.39" ry="18"/>
<text text-anchor="middle" x="1319.48" y="-455.17" font-family="Times,serif" font-size="14.00">SCANF</text>
</g>
<!-- n1&#45;&gt;n9 -->
<g id="edge9" class="edge">
<title>n1&#45;&gt;n9</title>
<path fill="none" stroke="black" d="M1398.25,-522.7C1382.17,-509.88 1362.74,-494.38 1347.2,-481.98"/>
<polygon fill="black" stroke="black" points="1350.01,-478.95 1340.01,-475.45 1345.65,-484.42 1350.01,-478.95"/>
</g>
<!-- n13 -->
<g id="node14" class="node">
<title>n13</title>
<ellipse fill="none" stroke="black" cx="1429.48" cy="-458.87" rx="47.39" ry="18"/>
<text text-anchor="middle" x="1429.48" y="-455.17" font-family="Times,serif" font-size="14.00">PRINTF</text>
</g>
<!-- n1&#45;&gt;n13 -->
<g id="edge13" class="edge">
<title>n1&#45;&gt;n13</title>
<path fill="none" stroke="black" d="M1429.48,-521.76C1429.48,-511.22 1429.48,-498.99 1429.48,-488.21"/>
<polygon fill="black" stroke="black" points="1432.98,-488.22 1429.48,-478.22 1425.98,-488.22 1432.98,-488.22"/>
</g>
<!-- n15 -->
<g id="node16" class="node">
<title>n15</title>
<ellipse fill="none" stroke="black" cx="1539.48" cy="-458.87" rx="44.39" ry="18"/>
<text text-anchor="middle" x="1539.48" y="-455.17" font-family="Times,serif" font-size="14.00">SCANF</text>
</g>
<!-- n1&#45;&gt;n15 -->
<g id="edge15" class="edge">
<title>n1&#45;&gt;n15</title>
<path fill="none" stroke="black" d="M1460.71,-522.7C1476.78,-509.88 1496.22,-494.38 1511.76,-481.98"/>
<polygon fill="black" stroke="black" points="1513.31,-484.42 1518.95,-475.45 1508.95,-478.95 1513.31,-484.42"/>
</g>
<!-- n19 -->
<g id="node20" class="node">
<title>n19</title>
<ellipse fill="none" stroke="black" cx="1726.48" cy="-458.87" rx="47.39" ry="18"/>
<text text-anchor="middle" x="1726.48" y="-455.17" font-family="Times,serif" font-size="14.00">PRINTF</text>
</g>
<!-- n1&#45;&gt;n19 -->
<g id="edge19" class="edge">
<title>n1&#45;&gt;n19</title>
<path fill="none" stroke="black" d="M1495.76,-528.03C1551.51,-511.56 1629.83,-488.42 1679.36,-473.79"/>
<polygon fill="black" stroke="black" points="1680.18,-476.9 1688.77,-470.71 1678.19,-470.19 1680.18,-476.9"/>
</g>
<!-- n21 -->
<g id="node22" class="node">
<title>n21</title>
<ellipse fill="none" stroke="black" cx="2088.48" cy="-458.87" rx="44.39" ry="18"/>
<text text-anchor="middle" x="2088.48" y="-455.17" font-family="Times,serif" font-size="14.00">SCANF</text>
</g>
<!-- n1&#45;&gt;n21 -->
<g id="edge21" class="edge">
<title>n1&#45;&gt;n21</title>
<path fill="none" stroke="black" d="M1518.7,-535.73C1658.22,-517.16 1923.69,-481.81 2036.1,-466.84"/>
<polygon fill="black" stroke="black" points="2036.36,-470.21 2045.81,-465.42 2035.44,-463.27 2036.36,-470.21"/>
</g>
<!-- n25 -->
<g id="node26" class="node">
<title>n25</title>
<ellipse fill="none" stroke="black" cx="2265.48" cy="-458.87" rx="47.39" ry="18"/>
<text text-anchor="middle" x="2265.48" y="-455.17" font-family="Times,serif" font-size="14.00">PRINTF</text>
</g>
<!-- n1&#45;&gt;n25 -->
<g id="edge25" class="edge">
<title>n1&#45;&gt;n25</title>
<path fill="none" stroke="black" d="M1528.68,-542.73C1666.65,-535.08 1924.05,-517.75 2141.48,-485.74 2165.97,-482.13 2192.9,-476.7 2215.39,-471.74"/>
<polygon fill="black" stroke="black" points="2216.05,-474.95 2225.04,-469.35 2214.52,-468.12 2216.05,-474.95"/>
</g>
<!-- n27 -->
<g id="node28" class="node">
<title>n27</title>
<ellipse fill="none" stroke="black" cx="2518.48" cy="-458.87" rx="27" ry="18"/>
<text text-anchor="middle" x="2518.48" y="-455.17" font-family="Times,serif" font-size="14.00">IF</text>
</g>
<!-- n1&#45;&gt;n27 -->
<g id="edge27" class="edge">
<title>n1&#45;&gt;n27</title>
<path fill="none" stroke="black" d="M1528.65,-542.72C1693.49,-534.15 2034.19,-514.54 2321.48,-485.74 2377.36,-480.14 2441.85,-471.2 2481.39,-465.43"/>
<polygon fill="black" stroke="black" points="2481.71,-468.78 2491.09,-463.86 2480.69,-461.85 2481.71,-468.78"/>
</g>
<!-- n73 -->
<g id="node74" class="node">
<title>n73</title>
<ellipse fill="none" stroke="black" cx="2736.48" cy="-458.87" rx="52.79" ry="18"/>
<text text-anchor="middle" x="2736.48" y="-455.17" font-family="Times,serif" font-size="14.00">RETURN</text>
</g>
<!-- n1&#45;&gt;n73 -->
<g id="edge73" class="edge">
<title>n1&#45;&gt;n73</title>
<path fill="none" stroke="black" d="M1530.17,-544.99C1727.23,-539.2 2177.55,-522.82 2554.48,-485.74 2596.36,-481.62 2643.38,-474.88 2679.14,-469.31"/>
<polygon fill="black" stroke="black" points="2679.52,-472.64 2688.86,-467.63 2678.43,-465.72 2679.52,-472.64"/>
</g>
<!-- n6 -->
<g id="node7" class="node">
<title>n6</title>
<ellipse fill="none" stroke="black" cx="227.48" cy="-378" rx="227.46" ry="18"/>
<text text-anchor="start" x="60.48" y="-374.3" font-family="Times,serif" font-size="14.00">&quot;=== Determinar Tipo de Triangulo ===\n\n&quot;</text>
</g>
<!-- n5&#45;&gt;n6 -->
<g id="edge6" class="edge">
<title>n5&#45;&gt;n6</title>
<path fill="none" stroke="black" d="M1070.44,-443.41C1061.25,-438.97 1050.66,-434.57 1040.48,-432 791.37,-369.05 719.84,-413.23 463.48,-396 443.32,-394.65 422.2,-393.18 401.23,-391.71"/>
<polygon fill="black" stroke="black" points="401.51,-388.15 391.28,-390.93 401.01,-395.13 401.51,-388.15"/>
</g>
<!-- n8 -->
<g id="node9" class="node">
<title>n8</title>
<ellipse fill="none" stroke="black" cx="643.48" cy="-378" rx="170.87" ry="18"/>
<text text-anchor="start" x="519.98" y="-374.3" font-family="Times,serif" font-size="14.00">&quot;Entre com o tamanho do lado A: &quot;</text>
</g>
<!-- n7&#45;&gt;n8 -->
<g id="edge8" class="edge">
<title>n7&#45;&gt;n8</title>
<path fill="none" stroke="black" d="M1182.89,-443.66C1173.52,-439.23 1162.76,-434.79 1152.48,-432 1134.52,-427.13 922.02,-405.93 777.33,-391.86"/>
<polygon fill="black" stroke="black" points="777.89,-388.3 767.6,-390.82 777.21,-395.27 777.89,-388.3"/>
</g>
<!-- n10 -->
<g id="node11" class="node">
<title>n10</title>
<ellipse fill="none" stroke="black" cx="866.48" cy="-378" rx="34.39" ry="18"/>
<text text-anchor="start" x="847.98" y="-374.3" font-family="Times,serif" font-size="14.00">&quot;%d&quot;</text>
</g>
<!-- n9&#45;&gt;n10 -->
<g id="edge10" class="edge">
<title>n9&#45;&gt;n10</title>
<path fill="none" stroke="black" d="M1294.37,-443.62C1285.5,-439.19 1275.29,-434.75 1265.48,-432 1112.37,-389 1064,-433.59 909.48,-396 907.13,-395.43 904.75,-394.76 902.36,-394.02"/>
<polygon fill="black" stroke="black" points="903.62,-390.4 893.03,-390.43 901.32,-397.02 903.62,-390.4"/>
</g>
<!-- n11 -->
<g id="node12" class="node">
<title>n11</title>
<ellipse fill="none" stroke="black" cx="991.48" cy="-378" rx="72.59" ry="18"/>
<text text-anchor="middle" x="991.48" y="-374.3" font-family="Times,serif" font-size="14.00">REFERENCE</text>
</g>
<!-- n9&#45;&gt;n11 -->
<g id="edge11" class="edge">
<title>n9&#45;&gt;n11</title>
<path fill="none" stroke="black" d="M1293.68,-443.82C1284.93,-439.51 1274.97,-435.1 1265.48,-432 1182.53,-404.92 1158.07,-412.96 1072.48,-396 1066.93,-394.9 1061.17,-393.74 1055.4,-392.55"/>
<polygon fill="black" stroke="black" points="1056.54,-389.01 1046.04,-390.42 1055.12,-395.87 1056.54,-389.01"/>
</g>
<!-- n12 -->
<g id="node13" class="node">
<title>n12</title>
<ellipse fill="none" stroke="black" cx="991.48" cy="-306" rx="32.49" ry="18"/>
<text text-anchor="middle" x="991.48" y="-302.3" font-family="Times,serif" font-size="14.00">ID: a</text>
</g>
<!-- n11&#45;&gt;n12 -->
<g id="edge12" class="edge">
<title>n11&#45;&gt;n12</title>
<path fill="none" stroke="black" d="M991.48,-359.7C991.48,-352.24 991.48,-343.32 991.48,-334.97"/>
<polygon fill="black" stroke="black" points="994.98,-335.1 991.48,-325.1 987.98,-335.1 994.98,-335.1"/>
</g>
<!-- n14 -->
<g id="node15" class="node">
<title>n14</title>
<ellipse fill="none" stroke="black" cx="1253.48" cy="-378" rx="171.67" ry="18"/>
<text text-anchor="start" x="1129.48" y="-374.3" font-family="Times,serif" font-size="14.00">&quot;Entre com o tamanho do lado B: &quot;</text>
</g>
<!-- n13&#45;&gt;n14 -->
<g id="edge14" class="edge">
<title>n13&#45;&gt;n14</title>
<path fill="none" stroke="black" d="M1399.91,-444.4C1391.09,-440.4 1381.4,-436.01 1372.48,-432 1349.24,-421.55 1323.41,-410.04 1301.77,-400.41"/>
<polygon fill="black" stroke="black" points="1303.39,-396.86 1292.83,-396 1300.55,-403.26 1303.39,-396.86"/>
</g>
<!-- n16 -->
<g id="node17" class="node">
<title>n16</title>
<ellipse fill="none" stroke="black" cx="1477.48" cy="-378" rx="34.39" ry="18"/>
<text text-anchor="start" x="1458.98" y="-374.3" font-family="Times,serif" font-size="14.00">&quot;%d&quot;</text>
</g>
<!-- n15&#45;&gt;n16 -->
<g id="edge16" class="edge">
<title>n15&#45;&gt;n16</title>
<path fill="none" stroke="black" d="M1526.63,-441.53C1518.01,-430.56 1506.5,-415.92 1496.79,-403.56"/>
<polygon fill="black" stroke="black" points="1499.03,-401.75 1490.1,-396.05 1493.53,-406.08 1499.03,-401.75"/>
</g>
<!-- n17 -->
<g id="node18" class="node">
<title>n17</title>
<ellipse fill="none" stroke="black" cx="1602.48" cy="-378" rx="72.59" ry="18"/>
<text text-anchor="middle" x="1602.48" y="-374.3" font-family="Times,serif" font-size="14.00">REFERENCE</text>
</g>
<!-- n15&#45;&gt;n17 -->
<g id="edge17" class="edge">
<title>n15&#45;&gt;n17</title>
<path fill="none" stroke="black" d="M1552.53,-441.53C1561.06,-430.85 1572.37,-416.69 1582.07,-404.55"/>
<polygon fill="black" stroke="black" points="1585.28,-407.14 1588.79,-397.14 1579.81,-402.77 1585.28,-407.14"/>
</g>
<!-- n18 -->
<g id="node19" class="node">
<title>n18</title>
<ellipse fill="none" stroke="black" cx="1602.48" cy="-306" rx="33.29" ry="18"/>
<text text-anchor="middle" x="1602.48" y="-302.3" font-family="Times,serif" font-size="14.00">ID: b</text>
</g>
<!-- n17&#45;&gt;n18 -->
<g id="edge18" class="edge">
<title>n17&#45;&gt;n18</title>
<path fill="none" stroke="black" d="M1602.48,-359.7C1602.48,-352.24 1602.48,-343.32 1602.48,-334.97"/>
<polygon fill="black" stroke="black" points="1605.98,-335.1 1602.48,-325.1 1598.98,-335.1 1605.98,-335.1"/>
</g>
<!-- n20 -->
<g id="node21" class="node">
<title>n20</title>
<ellipse fill="none" stroke="black" cx="1864.48" cy="-378" rx="171.67" ry="18"/>
<text text-anchor="start" x="1740.48" y="-374.3" font-family="Times,serif" font-size="14.00">&quot;Entre com o tamanho do lado C: &quot;</text>
</g>
<!-- n19&#45;&gt;n20 -->
<g id="edge20" class="edge">
<title>n19&#45;&gt;n20</title>
<path fill="none" stroke="black" d="M1751.79,-443.4C1772.31,-431.68 1801.58,-414.95 1825.15,-401.48"/>
<polygon fill="black" stroke="black" points="1826.58,-404.12 1833.53,-396.12 1823.11,-398.04 1826.58,-404.12"/>
</g>
<!-- n22 -->
<g id="node23" class="node">
<title>n22</title>
<ellipse fill="none" stroke="black" cx="2088.48" cy="-378" rx="34.39" ry="18"/>
<text text-anchor="start" x="2069.98" y="-374.3" font-family="Times,serif" font-size="14.00">&quot;%d&quot;</text>
</g>
<!-- n21&#45;&gt;n22 -->
<g id="edge22" class="edge">
<title>n21&#45;&gt;n22</title>
<path fill="none" stroke="black" d="M2088.48,-440.76C2088.48,-430.9 2088.48,-418.28 2088.48,-407.01"/>
<polygon fill="black" stroke="black" points="2091.98,-407.35 2088.48,-397.35 2084.98,-407.35 2091.98,-407.35"/>
</g>
<!-- n23 -->
<g id="node24" class="node">
<title>n23</title>
<ellipse fill="none" stroke="black" cx="2213.48" cy="-378" rx="72.59" ry="18"/>
<text text-anchor="middle" x="2213.48" y="-374.3" font-family="Times,serif" font-size="14.00">REFERENCE</text>
</g>
<!-- n21&#45;&gt;n23 -->
<g id="edge23" class="edge">
<title>n21&#45;&gt;n23</title>
<path fill="none" stroke="black" d="M2111.7,-443.22C2130.52,-431.35 2157.33,-414.43 2178.71,-400.94"/>
<polygon fill="black" stroke="black" points="2180.21,-403.5 2186.8,-395.2 2176.48,-397.58 2180.21,-403.5"/>
</g>
<!-- n24 -->
<g id="node25" class="node">
<title>n24</title>
<ellipse fill="none" stroke="black" cx="2112.48" cy="-306" rx="32.49" ry="18"/>
<text text-anchor="middle" x="2112.48" y="-302.3" font-family="Times,serif" font-size="14.00">ID: c</text>
</g>
<!-- n23&#45;&gt;n24 -->
<g id="edge24" class="edge">
<title>n23&#45;&gt;n24</title>
<path fill="none" stroke="black" d="M2189.8,-360.59C2175.18,-350.45 2156.33,-337.39 2140.9,-326.7"/>
<polygon fill="black" stroke="black" points="2143.49,-323.54 2133.27,-320.72 2139.5,-329.29 2143.49,-323.54"/>
</g>
<!-- n26 -->
<g id="node27" class="node">
<title>n26</title>
<ellipse fill="none" stroke="black" cx="2332.48" cy="-378" rx="28.7" ry="18"/>
<text text-anchor="start" x="2318.48" y="-374.3" font-family="Times,serif" font-size="14.00">&quot;\n&quot;</text>
</g>
<!-- n25&#45;&gt;n26 -->
<g id="edge26" class="edge">
<title>n25&#45;&gt;n26</title>
<path fill="none" stroke="black" d="M2279.36,-441.53C2288.95,-430.24 2301.86,-415.05 2312.55,-402.46"/>
<polygon fill="black" stroke="black" points="2315.72,-405.14 2319.52,-395.25 2310.38,-400.61 2315.72,-405.14"/>
</g>
<!-- n28 -->
<g id="node29" class="node">
<title>n28</title>
<ellipse fill="none" stroke="black" cx="2458.48" cy="-378" rx="79.09" ry="18"/>
<text text-anchor="middle" x="2458.48" y="-374.3" font-family="Times,serif" font-size="14.00">LOGICAL_AND</text>
</g>
<!-- n27&#45;&gt;n28 -->
<g id="edge28" class="edge">
<title>n27&#45;&gt;n28</title>
<path fill="none" stroke="black" d="M2506.63,-442.29C2498.49,-431.59 2487.51,-417.15 2478.08,-404.77"/>
<polygon fill="black" stroke="black" points="2480.4,-403.03 2471.56,-397.19 2474.83,-407.27 2480.4,-403.03"/>
</g>
<!-- n45 -->
<g id="node46" class="node">
<title>n45</title>
<ellipse fill="none" stroke="black" cx="2612.48" cy="-378" rx="27" ry="18"/>
<text text-anchor="middle" x="2612.48" y="-374.3" font-family="Times,serif" font-size="14.00">IF</text>
</g>
<!-- n27&#45;&gt;n45 -->
<g id="edge45" class="edge">
<title>n27&#45;&gt;n45</title>
<path fill="none" stroke="black" d="M2534.85,-444.13C2549.55,-431.8 2571.31,-413.54 2588.06,-399.49"/>
<polygon fill="black" stroke="black" points="2589.88,-401.69 2595.29,-392.58 2585.38,-396.33 2589.88,-401.69"/>
</g>
<!-- n71 -->
<g id="node72" class="node">
<title>n71</title>
<ellipse fill="none" stroke="black" cx="2704.48" cy="-378" rx="47.39" ry="18"/>
<text text-anchor="middle" x="2704.48" y="-374.3" font-family="Times,serif" font-size="14.00">PRINTF</text>
</g>
<!-- n27&#45;&gt;n71 -->
<g id="edge71" class="edge">
<title>n27&#45;&gt;n71</title>
<path fill="none" stroke="black" d="M2540.92,-448.36C2571.34,-435.46 2626.2,-412.19 2663.94,-396.19"/>
<polygon fill="black" stroke="black" points="2664.77,-399.21 2672.61,-392.09 2662.04,-392.77 2664.77,-399.21"/>
</g>
<!-- n29 -->
<g id="node30" class="node">
<title>n29</title>
<ellipse fill="none" stroke="black" cx="2242.48" cy="-306" rx="79.09" ry="18"/>
<text text-anchor="middle" x="2242.48" y="-302.3" font-family="Times,serif" font-size="14.00">LOGICAL_AND</text>
</g>
<!-- n28&#45;&gt;n29 -->
<g id="edge29" class="edge">
<title>n28&#45;&gt;n29</title>
<path fill="none" stroke="black" d="M2414.25,-362.67C2380.32,-351.67 2333.32,-336.44 2297.05,-324.69"/>
<polygon fill="black" stroke="black" points="2298.24,-321.07 2287.65,-321.32 2296.09,-327.73 2298.24,-321.07"/>
</g>
<!-- n40 -->
<g id="node41" class="node">
<title>n40</title>
<ellipse fill="none" stroke="black" cx="2427.48" cy="-306" rx="67.69" ry="18"/>
<text text-anchor="middle" x="2427.48" y="-302.3" font-family="Times,serif" font-size="14.00">LESS_THAN</text>
</g>
<!-- n28&#45;&gt;n40 -->
<g id="edge40" class="edge">
<title>n28&#45;&gt;n40</title>
<path fill="none" stroke="black" d="M2450.82,-359.7C2447.4,-351.98 2443.3,-342.71 2439.49,-334.11"/>
<polygon fill="black" stroke="black" points="2442.3,-332.83 2435.05,-325.1 2435.9,-335.67 2442.3,-332.83"/>
</g>
<!-- n30 -->
<g id="node31" class="node">
<title>n30</title>
<ellipse fill="none" stroke="black" cx="2069.48" cy="-234" rx="67.69" ry="18"/>
<text text-anchor="middle" x="2069.48" y="-230.3" font-family="Times,serif" font-size="14.00">LESS_THAN</text>
</g>
<!-- n29&#45;&gt;n30 -->
<g id="edge30" class="edge">
<title>n29&#45;&gt;n30</title>
<path fill="none" stroke="black" d="M2204.94,-289.81C2178.65,-279.17 2143.37,-264.9 2115.41,-253.58"/>
<polygon fill="black" stroke="black" points="2117.05,-250.07 2106.47,-249.56 2114.42,-256.56 2117.05,-250.07"/>
</g>
<!-- n35 -->
<g id="node36" class="node">
<title>n35</title>
<ellipse fill="none" stroke="black" cx="2222.48" cy="-234" rx="67.69" ry="18"/>
<text text-anchor="middle" x="2222.48" y="-230.3" font-family="Times,serif" font-size="14.00">LESS_THAN</text>
</g>
<!-- n29&#45;&gt;n35 -->
<g id="edge35" class="edge">
<title>n29&#45;&gt;n35</title>
<path fill="none" stroke="black" d="M2237.54,-287.7C2235.38,-280.15 2232.8,-271.12 2230.39,-262.68"/>
<polygon fill="black" stroke="black" points="2233.48,-261.76 2227.37,-253.1 2226.75,-263.68 2233.48,-261.76"/>
</g>
<!-- n31 -->
<g id="node32" class="node">
<title>n31</title>
<ellipse fill="none" stroke="black" cx="1983.48" cy="-162" rx="32.49" ry="18"/>
<text text-anchor="middle" x="1983.48" y="-158.3" font-family="Times,serif" font-size="14.00">ID: a</text>
</g>
<!-- n30&#45;&gt;n31 -->
<g id="edge31" class="edge">
<title>n30&#45;&gt;n31</title>
<path fill="none" stroke="black" d="M2049.1,-216.41C2037.23,-206.75 2022.16,-194.48 2009.45,-184.14"/>
<polygon fill="black" stroke="black" points="2012.06,-180.94 2002.1,-177.34 2007.64,-186.37 2012.06,-180.94"/>
</g>
<!-- n32 -->
<g id="node33" class="node">
<title>n32</title>
<ellipse fill="none" stroke="black" cx="2070.48" cy="-162" rx="36.29" ry="18"/>
<text text-anchor="middle" x="2070.48" y="-158.3" font-family="Times,serif" font-size="14.00">PLUS</text>
</g>
<!-- n30&#45;&gt;n32 -->
<g id="edge32" class="edge">
<title>n30&#45;&gt;n32</title>
<path fill="none" stroke="black" d="M2069.73,-215.7C2069.83,-208.24 2069.96,-199.32 2070.08,-190.97"/>
<polygon fill="black" stroke="black" points="2073.59,-191.15 2070.24,-181.1 2066.59,-191.05 2073.59,-191.15"/>
</g>
<!-- n33 -->
<g id="node34" class="node">
<title>n33</title>
<ellipse fill="none" stroke="black" cx="2028.48" cy="-90" rx="33.29" ry="18"/>
<text text-anchor="middle" x="2028.48" y="-86.3" font-family="Times,serif" font-size="14.00">ID: b</text>
</g>
<!-- n32&#45;&gt;n33 -->
<g id="edge33" class="edge">
<title>n32&#45;&gt;n33</title>
<path fill="none" stroke="black" d="M2060.53,-144.41C2055.56,-136.13 2049.43,-125.92 2043.88,-116.66"/>
<polygon fill="black" stroke="black" points="2046.51,-115.24 2038.36,-108.47 2040.51,-118.85 2046.51,-115.24"/>
</g>
<!-- n34 -->
<g id="node35" class="node">
<title>n34</title>
<ellipse fill="none" stroke="black" cx="2112.48" cy="-90" rx="32.49" ry="18"/>
<text text-anchor="middle" x="2112.48" y="-86.3" font-family="Times,serif" font-size="14.00">ID: c</text>
</g>
<!-- n32&#45;&gt;n34 -->
<g id="edge34" class="edge">
<title>n32&#45;&gt;n34</title>
<path fill="none" stroke="black" d="M2080.43,-144.41C2085.4,-136.13 2091.52,-125.92 2097.08,-116.66"/>
<polygon fill="black" stroke="black" points="2100.45,-118.85 2102.6,-108.47 2094.45,-115.24 2100.45,-118.85"/>
</g>
<!-- n36 -->
<g id="node37" class="node">
<title>n36</title>
<ellipse fill="none" stroke="black" cx="2163.48" cy="-162" rx="33.29" ry="18"/>
<text text-anchor="middle" x="2163.48" y="-158.3" font-family="Times,serif" font-size="14.00">ID: b</text>
</g>
<!-- n35&#45;&gt;n36 -->
<g id="edge36" class="edge">
<title>n35&#45;&gt;n36</title>
<path fill="none" stroke="black" d="M2208.2,-216.05C2200.89,-207.38 2191.86,-196.67 2183.83,-187.15"/>
<polygon fill="black" stroke="black" points="2185.94,-185.22 2176.82,-179.83 2180.59,-189.73 2185.94,-185.22"/>
</g>
<!-- n37 -->
<g id="node38" class="node">
<title>n37</title>
<ellipse fill="none" stroke="black" cx="2251.48" cy="-162" rx="36.29" ry="18"/>
<text text-anchor="middle" x="2251.48" y="-158.3" font-family="Times,serif" font-size="14.00">PLUS</text>
</g>
<!-- n35&#45;&gt;n37 -->
<g id="edge37" class="edge">
<title>n35&#45;&gt;n37</title>
<path fill="none" stroke="black" d="M2229.65,-215.7C2232.84,-207.98 2236.68,-198.71 2240.25,-190.11"/>
<polygon fill="black" stroke="black" points="2243.8,-191.68 2244.39,-181.1 2237.33,-189 2243.8,-191.68"/>
</g>
<!-- n38 -->
<g id="node39" class="node">
<title>n38</title>
<ellipse fill="none" stroke="black" cx="2247.48" cy="-90" rx="32.49" ry="18"/>
<text text-anchor="middle" x="2247.48" y="-86.3" font-family="Times,serif" font-size="14.00">ID: a</text>
</g>
<!-- n37&#45;&gt;n38 -->
<g id="edge38" class="edge">
<title>n37&#45;&gt;n38</title>
<path fill="none" stroke="black" d="M2250.49,-143.7C2250.06,-136.24 2249.56,-127.32 2249.08,-118.97"/>
<polygon fill="black" stroke="black" points="2252.52,-118.89 2248.46,-109.1 2245.53,-119.29 2252.52,-118.89"/>
</g>
<!-- n39 -->
<g id="node40" class="node">
<title>n39</title>
<ellipse fill="none" stroke="black" cx="2330.48" cy="-90" rx="32.49" ry="18"/>
<text text-anchor="middle" x="2330.48" y="-86.3" font-family="Times,serif" font-size="14.00">ID: c</text>
</g>
<!-- n37&#45;&gt;n39 -->
<g id="edge39" class="edge">
<title>n37&#45;&gt;n39</title>
<path fill="none" stroke="black" d="M2268.62,-145.81C2279.54,-136.14 2293.84,-123.46 2305.95,-112.73"/>
<polygon fill="black" stroke="black" points="2307.75,-115.93 2312.91,-106.68 2303.11,-110.69 2307.75,-115.93"/>
</g>
<!-- n41 -->
<g id="node42" class="node">
<title>n41</title>
<ellipse fill="none" stroke="black" cx="2340.48" cy="-234" rx="32.49" ry="18"/>
<text text-anchor="middle" x="2340.48" y="-230.3" font-family="Times,serif" font-size="14.00">ID: c</text>
</g>
<!-- n40&#45;&gt;n41 -->
<g id="edge41" class="edge">
<title>n40&#45;&gt;n41</title>
<path fill="none" stroke="black" d="M2406.86,-288.41C2394.86,-278.75 2379.61,-266.48 2366.75,-256.14"/>
<polygon fill="black" stroke="black" points="2369.29,-252.88 2359.3,-249.34 2364.9,-258.33 2369.29,-252.88"/>
</g>
<!-- n42 -->
<g id="node43" class="node">
<title>n42</title>
<ellipse fill="none" stroke="black" cx="2427.48" cy="-234" rx="36.29" ry="18"/>
<text text-anchor="middle" x="2427.48" y="-230.3" font-family="Times,serif" font-size="14.00">PLUS</text>
</g>
<!-- n40&#45;&gt;n42 -->
<g id="edge42" class="edge">
<title>n40&#45;&gt;n42</title>
<path fill="none" stroke="black" d="M2427.48,-287.7C2427.48,-280.24 2427.48,-271.32 2427.48,-262.97"/>
<polygon fill="black" stroke="black" points="2430.98,-263.1 2427.48,-253.1 2423.98,-263.1 2430.98,-263.1"/>
</g>
<!-- n43 -->
<g id="node44" class="node">
<title>n43</title>
<ellipse fill="none" stroke="black" cx="2341.48" cy="-162" rx="32.49" ry="18"/>
<text text-anchor="middle" x="2341.48" y="-158.3" font-family="Times,serif" font-size="14.00">ID: a</text>
</g>
<!-- n42&#45;&gt;n43 -->
<g id="edge43" class="edge">
<title>n42&#45;&gt;n43</title>
<path fill="none" stroke="black" d="M2409.24,-218.15C2397.11,-208.28 2380.98,-195.15 2367.51,-184.19"/>
<polygon fill="black" stroke="black" points="2370.07,-180.94 2360.1,-177.35 2365.65,-186.37 2370.07,-180.94"/>
</g>
<!-- n44 -->
<g id="node45" class="node">
<title>n44</title>
<ellipse fill="none" stroke="black" cx="2425.48" cy="-162" rx="33.29" ry="18"/>
<text text-anchor="middle" x="2425.48" y="-158.3" font-family="Times,serif" font-size="14.00">ID: b</text>
</g>
<!-- n42&#45;&gt;n44 -->
<g id="edge44" class="edge">
<title>n42&#45;&gt;n44</title>
<path fill="none" stroke="black" d="M2426.99,-215.7C2426.77,-208.24 2426.52,-199.32 2426.28,-190.97"/>
<polygon fill="black" stroke="black" points="2429.75,-191 2425.97,-181.1 2422.76,-191.2 2429.75,-191"/>
</g>
<!-- n46 -->
<g id="node47" class="node">
<title>n46</title>
<ellipse fill="none" stroke="black" cx="2612.48" cy="-306" rx="79.09" ry="18"/>
<text text-anchor="middle" x="2612.48" y="-302.3" font-family="Times,serif" font-size="14.00">LOGICAL_AND</text>
</g>
<!-- n45&#45;&gt;n46 -->
<g id="edge46" class="edge">
<title>n45&#45;&gt;n46</title>
<path fill="none" stroke="black" d="M2612.48,-359.7C2612.48,-352.24 2612.48,-343.32 2612.48,-334.97"/>
<polygon fill="black" stroke="black" points="2615.98,-335.1 2612.48,-325.1 2608.98,-335.1 2615.98,-335.1"/>
</g>
<!-- n53 -->
<g id="node54" class="node">
<title>n53</title>
<ellipse fill="none" stroke="black" cx="2784.48" cy="-306" rx="47.39" ry="18"/>
<text text-anchor="middle" x="2784.48" y="-302.3" font-family="Times,serif" font-size="14.00">PRINTF</text>
</g>
<!-- n45&#45;&gt;n53 -->
<g id="edge53" class="edge">
<title>n45&#45;&gt;n53</title>
<path fill="none" stroke="black" d="M2633.69,-366.69C2638.52,-364.42 2643.65,-362.08 2648.48,-360 2679.1,-346.82 2714.16,-333.2 2741.01,-323.06"/>
<polygon fill="black" stroke="black" points="2742.11,-326.01 2750.24,-319.21 2739.65,-319.46 2742.11,-326.01"/>
</g>
<!-- n55 -->
<g id="node56" class="node">
<title>n55</title>
<ellipse fill="none" stroke="black" cx="3020.48" cy="-306" rx="27" ry="18"/>
<text text-anchor="middle" x="3020.48" y="-302.3" font-family="Times,serif" font-size="14.00">IF</text>
</g>
<!-- n45&#45;&gt;n55 -->
<g id="edge55" class="edge">
<title>n45&#45;&gt;n55</title>
<path fill="none" stroke="black" d="M2633,-366.02C2637.96,-363.73 2643.32,-361.55 2648.48,-360 2710.77,-341.32 2901.67,-319.59 2983.07,-310.89"/>
<polygon fill="black" stroke="black" points="2983.23,-314.29 2992.81,-309.75 2982.49,-307.33 2983.23,-314.29"/>
</g>
<!-- n47 -->
<g id="node48" class="node">
<title>n47</title>
<ellipse fill="none" stroke="black" cx="2526.48" cy="-234" rx="44.39" ry="18"/>
<text text-anchor="middle" x="2526.48" y="-230.3" font-family="Times,serif" font-size="14.00">EQUAL</text>
</g>
<!-- n46&#45;&gt;n47 -->
<g id="edge47" class="edge">
<title>n46&#45;&gt;n47</title>
<path fill="none" stroke="black" d="M2592.1,-288.41C2580.64,-279.08 2566.18,-267.31 2553.75,-257.2"/>
<polygon fill="black" stroke="black" points="2556.5,-254.11 2546.54,-250.51 2552.08,-259.54 2556.5,-254.11"/>
</g>
<!-- n50 -->
<g id="node51" class="node">
<title>n50</title>
<ellipse fill="none" stroke="black" cx="2632.48" cy="-234" rx="44.39" ry="18"/>
<text text-anchor="middle" x="2632.48" y="-230.3" font-family="Times,serif" font-size="14.00">EQUAL</text>
</g>
<!-- n46&#45;&gt;n50 -->
<g id="edge50" class="edge">
<title>n46&#45;&gt;n50</title>
<path fill="none" stroke="black" d="M2617.42,-287.7C2619.58,-280.15 2622.16,-271.12 2624.57,-262.68"/>
<polygon fill="black" stroke="black" points="2628.21,-263.68 2627.59,-253.1 2621.48,-261.76 2628.21,-263.68"/>
</g>
<!-- n48 -->
<g id="node49" class="node">
<title>n48</title>
<ellipse fill="none" stroke="black" cx="2509.48" cy="-162" rx="32.49" ry="18"/>
<text text-anchor="middle" x="2509.48" y="-158.3" font-family="Times,serif" font-size="14.00">ID: a</text>
</g>
<!-- n47&#45;&gt;n48 -->
<g id="edge48" class="edge">
<title>n47&#45;&gt;n48</title>
<path fill="none" stroke="black" d="M2522.28,-215.7C2520.45,-208.15 2518.25,-199.12 2516.2,-190.68"/>
<polygon fill="black" stroke="black" points="2519.39,-190 2513.63,-181.1 2512.59,-191.65 2519.39,-190"/>
</g>
<!-- n49 -->
<g id="node50" class="node">
<title>n49</title>
<ellipse fill="none" stroke="black" cx="2593.48" cy="-162" rx="33.29" ry="18"/>
<text text-anchor="middle" x="2593.48" y="-158.3" font-family="Times,serif" font-size="14.00">ID: b</text>
</g>
<!-- n47&#45;&gt;n49 -->
<g id="edge49" class="edge">
<title>n47&#45;&gt;n49</title>
<path fill="none" stroke="black" d="M2542.02,-216.76C2550.8,-207.59 2561.93,-195.96 2571.58,-185.88"/>
<polygon fill="black" stroke="black" points="2573.56,-188.83 2577.94,-179.19 2568.5,-183.99 2573.56,-188.83"/>
</g>
<!-- n51 -->
<g id="node52" class="node">
<title>n51</title>
<ellipse fill="none" stroke="black" cx="2677.48" cy="-162" rx="33.29" ry="18"/>
<text text-anchor="middle" x="2677.48" y="-158.3" font-family="Times,serif" font-size="14.00">ID: b</text>
</g>
<!-- n50&#45;&gt;n51 -->
<g id="edge51" class="edge">
<title>n50&#45;&gt;n51</title>
<path fill="none" stroke="black" d="M2643.37,-216.05C2648.7,-207.77 2655.23,-197.62 2661.14,-188.42"/>
<polygon fill="black" stroke="black" points="2664.53,-190.61 2667,-180.31 2658.64,-186.83 2664.53,-190.61"/>
</g>
<!-- n52 -->
<g id="node53" class="node">
<title>n52</title>
<ellipse fill="none" stroke="black" cx="2761.48" cy="-162" rx="32.49" ry="18"/>
<text text-anchor="middle" x="2761.48" y="-158.3" font-family="Times,serif" font-size="14.00">ID: c</text>
</g>
<!-- n50&#45;&gt;n52 -->
<g id="edge52" class="edge">
<title>n50&#45;&gt;n52</title>
<path fill="none" stroke="black" d="M2658.27,-219C2678.68,-207.93 2707.28,-192.41 2729.2,-180.51"/>
<polygon fill="black" stroke="black" points="2730.63,-183.18 2737.75,-175.33 2727.29,-177.03 2730.63,-183.18"/>
</g>
<!-- n54 -->
<g id="node55" class="node">
<title>n54</title>
<ellipse fill="none" stroke="black" cx="2812.48" cy="-234" rx="118.08" ry="18"/>
<text text-anchor="start" x="2729.48" y="-230.3" font-family="Times,serif" font-size="14.00">&quot;Triangulo Equilatero.&quot;</text>
</g>
<!-- n53&#45;&gt;n54 -->
<g id="edge54" class="edge">
<title>n53&#45;&gt;n54</title>
<path fill="none" stroke="black" d="M2791.4,-287.7C2794.49,-279.98 2798.19,-270.71 2801.63,-262.11"/>
<polygon fill="black" stroke="black" points="2805.17,-263.69 2805.64,-253.1 2798.67,-261.09 2805.17,-263.69"/>
</g>
<!-- n56 -->
<g id="node57" class="node">
<title>n56</title>
<ellipse fill="none" stroke="black" cx="3020.48" cy="-234" rx="72.29" ry="18"/>
<text text-anchor="middle" x="3020.48" y="-230.3" font-family="Times,serif" font-size="14.00">LOGICAL_OR</text>
</g>
<!-- n55&#45;&gt;n56 -->
<g id="edge56" class="edge">
<title>n55&#45;&gt;n56</title>
<path fill="none" stroke="black" d="M3020.48,-287.7C3020.48,-280.24 3020.48,-271.32 3020.48,-262.97"/>
<polygon fill="black" stroke="black" points="3023.98,-263.1 3020.48,-253.1 3016.98,-263.1 3023.98,-263.1"/>
</g>
<!-- n67 -->
<g id="node68" class="node">
<title>n67</title>
<ellipse fill="none" stroke="black" cx="3176.48" cy="-234" rx="47.39" ry="18"/>
<text text-anchor="middle" x="3176.48" y="-230.3" font-family="Times,serif" font-size="14.00">PRINTF</text>
</g>
<!-- n55&#45;&gt;n67 -->
<g id="edge67" class="edge">
<title>n55&#45;&gt;n67</title>
<path fill="none" stroke="black" d="M3042.14,-294.66C3046.86,-292.44 3051.83,-290.13 3056.48,-288 3083.01,-275.88 3113.02,-262.63 3136.39,-252.4"/>
<polygon fill="black" stroke="black" points="3137.54,-255.29 3145.3,-248.08 3134.74,-248.87 3137.54,-255.29"/>
</g>
<!-- n69 -->
<g id="node70" class="node">
<title>n69</title>
<ellipse fill="none" stroke="black" cx="3362.48" cy="-234" rx="47.39" ry="18"/>
<text text-anchor="middle" x="3362.48" y="-230.3" font-family="Times,serif" font-size="14.00">PRINTF</text>
</g>
<!-- n55&#45;&gt;n69 -->
<g id="edge69" class="edge">
<title>n55&#45;&gt;n69</title>
<path fill="none" stroke="black" d="M3041.03,-294.13C3045.99,-291.84 3051.34,-289.63 3056.48,-288 3102.35,-273.49 3232.99,-253.45 3307.91,-242.65"/>
<polygon fill="black" stroke="black" points="3308.14,-246.01 3317.54,-241.12 3307.14,-239.08 3308.14,-246.01"/>
</g>
<!-- n57 -->
<g id="node58" class="node">
<title>n57</title>
<ellipse fill="none" stroke="black" cx="2885.48" cy="-162" rx="72.29" ry="18"/>
<text text-anchor="middle" x="2885.48" y="-158.3" font-family="Times,serif" font-size="14.00">LOGICAL_OR</text>
</g>
<!-- n56&#45;&gt;n57 -->
<g id="edge57" class="edge">
<title>n56&#45;&gt;n57</title>
<path fill="none" stroke="black" d="M2990.18,-217.29C2970.99,-207.34 2945.96,-194.36 2925.19,-183.59"/>
<polygon fill="black" stroke="black" points="2927.16,-180.15 2916.68,-178.66 2923.94,-186.37 2927.16,-180.15"/>
</g>
<!-- n64 -->
<g id="node65" class="node">
<title>n64</title>
<ellipse fill="none" stroke="black" cx="3019.48" cy="-162" rx="44.39" ry="18"/>
<text text-anchor="middle" x="3019.48" y="-158.3" font-family="Times,serif" font-size="14.00">EQUAL</text>
</g>
<!-- n56&#45;&gt;n64 -->
<g id="edge64" class="edge">
<title>n56&#45;&gt;n64</title>
<path fill="none" stroke="black" d="M3020.23,-215.7C3020.13,-208.24 3020,-199.32 3019.88,-190.97"/>
<polygon fill="black" stroke="black" points="3023.37,-191.05 3019.72,-181.1 3016.37,-191.15 3023.37,-191.05"/>
</g>
<!-- n58 -->
<g id="node59" class="node">
<title>n58</title>
<ellipse fill="none" stroke="black" cx="2789.48" cy="-90" rx="44.39" ry="18"/>
<text text-anchor="middle" x="2789.48" y="-86.3" font-family="Times,serif" font-size="14.00">EQUAL</text>
</g>
<!-- n57&#45;&gt;n58 -->
<g id="edge58" class="edge">
<title>n57&#45;&gt;n58</title>
<path fill="none" stroke="black" d="M2863.21,-144.76C2850,-135.13 2833.1,-122.81 2818.81,-112.39"/>
<polygon fill="black" stroke="black" points="2821.45,-109.25 2811.31,-106.19 2817.33,-114.91 2821.45,-109.25"/>
</g>
<!-- n61 -->
<g id="node62" class="node">
<title>n61</title>
<ellipse fill="none" stroke="black" cx="2895.48" cy="-90" rx="44.39" ry="18"/>
<text text-anchor="middle" x="2895.48" y="-86.3" font-family="Times,serif" font-size="14.00">EQUAL</text>
</g>
<!-- n57&#45;&gt;n61 -->
<g id="edge61" class="edge">
<title>n57&#45;&gt;n61</title>
<path fill="none" stroke="black" d="M2887.95,-143.7C2889.02,-136.24 2890.29,-127.32 2891.48,-118.97"/>
<polygon fill="black" stroke="black" points="2895.09,-119.5 2893.04,-109.1 2888.16,-118.51 2895.09,-119.5"/>
</g>
<!-- n59 -->
<g id="node60" class="node">
<title>n59</title>
<ellipse fill="none" stroke="black" cx="2711.48" cy="-18" rx="32.49" ry="18"/>
<text text-anchor="middle" x="2711.48" y="-14.3" font-family="Times,serif" font-size="14.00">ID: a</text>
</g>
<!-- n58&#45;&gt;n59 -->
<g id="edge59" class="edge">
<title>n58&#45;&gt;n59</title>
<path fill="none" stroke="black" d="M2771.78,-73.12C2761.22,-63.64 2747.65,-51.46 2736.06,-41.06"/>
<polygon fill="black" stroke="black" points="2738.82,-38.94 2729.04,-34.86 2734.15,-44.15 2738.82,-38.94"/>
</g>
<!-- n60 -->
<g id="node61" class="node">
<title>n60</title>
<ellipse fill="none" stroke="black" cx="2795.48" cy="-18" rx="33.29" ry="18"/>
<text text-anchor="middle" x="2795.48" y="-14.3" font-family="Times,serif" font-size="14.00">ID: b</text>
</g>
<!-- n58&#45;&gt;n60 -->
<g id="edge60" class="edge">
<title>n58&#45;&gt;n60</title>
<path fill="none" stroke="black" d="M2790.96,-71.7C2791.6,-64.24 2792.37,-55.32 2793.08,-46.97"/>
<polygon fill="black" stroke="black" points="2796.65,-47.37 2794.01,-37.1 2789.67,-46.77 2796.65,-47.37"/>
</g>
<!-- n62 -->
<g id="node63" class="node">
<title>n62</title>
<ellipse fill="none" stroke="black" cx="2890.48" cy="-18" rx="32.49" ry="18"/>
<text text-anchor="middle" x="2890.48" y="-14.3" font-family="Times,serif" font-size="14.00">ID: a</text>
</g>
<!-- n61&#45;&gt;n62 -->
<g id="edge62" class="edge">
<title>n61&#45;&gt;n62</title>
<path fill="none" stroke="black" d="M2894.24,-71.7C2893.71,-64.24 2893.07,-55.32 2892.48,-46.97"/>
<polygon fill="black" stroke="black" points="2895.91,-46.83 2891.7,-37.1 2888.92,-47.33 2895.91,-46.83"/>
</g>
<!-- n63 -->
<g id="node64" class="node">
<title>n63</title>
<ellipse fill="none" stroke="black" cx="2973.48" cy="-18" rx="32.49" ry="18"/>
<text text-anchor="middle" x="2973.48" y="-14.3" font-family="Times,serif" font-size="14.00">ID: c</text>
</g>
<!-- n61&#45;&gt;n63 -->
<g id="edge63" class="edge">
<title>n61&#45;&gt;n63</title>
<path fill="none" stroke="black" d="M2913.18,-73.12C2923.74,-63.64 2937.31,-51.46 2948.9,-41.06"/>
<polygon fill="black" stroke="black" points="2950.81,-44.15 2955.92,-34.86 2946.14,-38.94 2950.81,-44.15"/>
</g>
<!-- n65 -->
<g id="node66" class="node">
<title>n65</title>
<ellipse fill="none" stroke="black" cx="3009.48" cy="-90" rx="32.49" ry="18"/>
<text text-anchor="middle" x="3009.48" y="-86.3" font-family="Times,serif" font-size="14.00">ID: c</text>
</g>
<!-- n64&#45;&gt;n65 -->
<g id="edge65" class="edge">
<title>n64&#45;&gt;n65</title>
<path fill="none" stroke="black" d="M3017.01,-143.7C3015.94,-136.24 3014.67,-127.32 3013.47,-118.97"/>
<polygon fill="black" stroke="black" points="3016.8,-118.51 3011.92,-109.1 3009.87,-119.5 3016.8,-118.51"/>
</g>
<!-- n66 -->
<g id="node67" class="node">
<title>n66</title>
<ellipse fill="none" stroke="black" cx="3093.48" cy="-90" rx="33.29" ry="18"/>
<text text-anchor="middle" x="3093.48" y="-86.3" font-family="Times,serif" font-size="14.00">ID: b</text>
</g>
<!-- n64&#45;&gt;n66 -->
<g id="edge66" class="edge">
<title>n64&#45;&gt;n66</title>
<path fill="none" stroke="black" d="M3036.27,-145.12C3046.19,-135.73 3058.91,-123.7 3069.84,-113.36"/>
<polygon fill="black" stroke="black" points="3071.91,-116.28 3076.77,-106.86 3067.1,-111.19 3071.91,-116.28"/>
</g>
<!-- n68 -->
<g id="node69" class="node">
<title>n68</title>
<ellipse fill="none" stroke="black" cx="3193.48" cy="-162" rx="111.58" ry="18"/>
<text text-anchor="start" x="3115.48" y="-158.3" font-family="Times,serif" font-size="14.00">&quot;Triangulo Isosceles.&quot;</text>
</g>
<!-- n67&#45;&gt;n68 -->
<g id="edge68" class="edge">
<title>n67&#45;&gt;n68</title>
<path fill="none" stroke="black" d="M3180.68,-215.7C3182.51,-208.15 3184.71,-199.12 3186.76,-190.68"/>
<polygon fill="black" stroke="black" points="3190.37,-191.65 3189.33,-181.1 3183.56,-190 3190.37,-191.65"/>
</g>
<!-- n70 -->
<g id="node71" class="node">
<title>n70</title>
<ellipse fill="none" stroke="black" cx="3434.48" cy="-162" rx="111.28" ry="18"/>
<text text-anchor="start" x="3356.98" y="-158.3" font-family="Times,serif" font-size="14.00">&quot;Triangulo Escaleno.&quot;</text>
</g>
<!-- n69&#45;&gt;n70 -->
<g id="edge70" class="edge">
<title>n69&#45;&gt;n70</title>
<path fill="none" stroke="black" d="M3379.18,-216.76C3388.09,-208.1 3399.25,-197.25 3409.21,-187.57"/>
<polygon fill="black" stroke="black" points="3411.14,-190.6 3415.87,-181.12 3406.26,-185.59 3411.14,-190.6"/>
</g>
<!-- n72 -->
<g id="node73" class="node">
<title>n72</title>
<ellipse fill="none" stroke="black" cx="3185.48" cy="-306" rx="120.48" ry="18"/>
<text text-anchor="start" x="3100.98" y="-302.3" font-family="Times,serif" font-size="14.00">&quot;Nao eh Triangulo!!!\n&quot;</text>
</g>
<!-- n71&#45;&gt;n72 -->
<g id="edge72" class="edge">
<title>n71&#45;&gt;n72</title>
<path fill="none" stroke="black" d="M2739.19,-365.44C2746.18,-363.4 2753.52,-361.47 2760.48,-360 2890.15,-332.65 2925.01,-340.66 3056.48,-324 3066.38,-322.75 3076.7,-321.42 3087,-320.08"/>
<polygon fill="black" stroke="black" points="3087.25,-323.45 3096.71,-318.69 3086.35,-316.51 3087.25,-323.45"/>
</g>
<!-- n74 -->
<g id="node75" class="node">
<title>n74</title>
<ellipse fill="none" stroke="black" cx="2796.48" cy="-378" rx="27" ry="18"/>
<text text-anchor="middle" x="2796.48" y="-374.3" font-family="Times,serif" font-size="14.00">0</text>
</g>
<!-- n73&#45;&gt;n74 -->
<g id="edge74" class="edge">
<title>n73&#45;&gt;n74</title>
<path fill="none" stroke="black" d="M2749.2,-441.14C2757.62,-430.08 2768.79,-415.4 2778.15,-403.09"/>
<polygon fill="black" stroke="black" points="2781.32,-405.71 2784.59,-395.63 2775.75,-401.47 2781.32,-405.71"/>
</g>
</g>
</svg>
